#!OML:ASF E:\Steps\Project 1\Capture day 1\Session 2\Subject.ASF
:FULLY-SPECIFIED
:DEGREES
32
root -1.25368 16.2981 21.2074 -153.77 -0.635126 179.957
lowerback -27.4639 -2.09216 -5.59319
upperback -1.88488 -1.72567 0.631281
thorax 13.3801 -1.40378 3.24029
lowerneck -0.984902 -5.48134 -0.538462
upperneck 17.2983 -6.92872 3.57766
head 5.5197 -2.75268 0.895178
rclavicle 5.51627e-015 7.95139e-015
rhumerus -41.0629 -16.1959 -79.0171
rradius 34.9371
rwrist -4.68234
rhand -7.46456 -56.5464
rfingers 7.12502
rthumb 18.424 -85.6939
lclavicle 5.51627e-015 7.95139e-015
lhumerus -31.0794 3.93457 82.6261
lradius 23.4638
lwrist -3.29425
lhand -21.8984 -12.9253
lfingers 7.12502
lthumb 4.50689 17.0068
rfemur -25.3071 6.21009 20.9665
rtibia 7.7078
rfoot -16.9316 0.840911
rtoes -12.2868
lfemur -24.5126 -7.50093 -20.8231
ltibia 7.97992
lfoot -7.7706 1.3518
ltoes -40.2183
33
root -1.254 16.2985 21.2104 -153.747 -0.544303 179.91
lowerback -27.6299 -2.10666 -5.64505
upperback -1.77486 -1.69968 0.599855
thorax 13.5979 -1.3965 3.24083
lowerneck -0.787784 -5.51413 -0.541486
upperneck 16.965 -6.99545 3.67184
head 5.38736 -2.79871 0.928348
rclavicle 7.45443e-015 1.51076e-014
rhumerus -40.9058 -16.232 -79.096
rradius 34.9812
rwrist -4.70167
rhand -7.37276 -56.9296
rfingers 7.12502
rthumb 18.5123 -86.0687
lclavicle 7.45443e-015 1.51076e-014
lhumerus -30.8735 3.99691 82.5927
lradius 23.3361
lwrist -3.4485
lhand -22.2197 -13.2914
lfingers 7.12502
lthumb 4.19659 16.647
rfemur -25.3558 6.22906 20.8842
rtibia 7.70377
rfoot -16.9355 0.810092
rtoes -13.0077
lfemur -24.5589 -7.53083 -20.8698
ltibia 7.99785
lfoot -7.7133 1.44119
ltoes -40.1794
34
root -1.25222 16.2976 21.2131 -153.762 -0.444809 179.931
lowerback -28.3712 -2.11129 -5.60721
upperback -0.906578 -1.59575 0.631084
thorax 14.2002 -1.3305 3.08015
lowerneck -0.924923 -5.53322 -0.516485
upperneck 16.5589 -7.09009 3.8626
head 5.29254 -2.86027 0.976003
rclavicle 6.01324e-015 1.11319e-014
rhumerus -40.1449 -16.543 -79.3488
rradius 34.9616
rwrist -4.63752
rhand -7.38874 -57.1198
rfingers 7.12502
rthumb 18.4969 -86.2604
lclavicle 6.01324e-015 1.11319e-014
lhumerus -30.017 4.06706 82.5396
lradius 23.1332
lwrist -3.53473
lhand -22.054 -13.4892
lfingers 7.12502
lthumb 4.35659 16.446
rfemur -25.3663 6.42149 20.8427
rtibia 7.70883
rfoot -16.9177 0.699431
rtoes -13.3022
lfemur -24.5506 -7.54713 -20.8292
ltibia 7.99914
lfoot -7.69781 1.59277
ltoes -40.1835
35
root -1.25606 16.2954 21.2165 -153.72 -0.365716 179.912
lowerback -28.3844 -2.1013 -5.61566
upperback -0.906443 -1.57796 0.61564
thorax 14.2042 -1.32311 3.07441
lowerneck -0.859653 -5.55334 -0.58992
upperneck 16.4889 -7.12788 3.97232
head 5.26731 -2.87981 1.02206
rclavicle -3.13086e-015 -6.75868e-015
rhumerus -40.1921 -16.4831 -79.352
rradius 35.0881
rwrist -4.63991
rhand -7.38019 -57.0965
rfingers 7.12502
rthumb 18.5051 -86.2363
lclavicle -3.13086e-015 -6.75868e-015
lhumerus -30.009 4.12579 82.5118
lradius 23.0705
lwrist -3.57454
lhand -21.8641 -13.6269
lfingers 7.12502
lthumb 4.54003 16.3045
rfemur -25.4453 6.35581 20.8081
rtibia 7.73426
rfoot -16.8612 0.817765
rtoes -13.4997
lfemur -24.6101 -7.56404 -20.8809
ltibia 8.03179
lfoot -7.814 1.66145
ltoes -40.3027
36
root -1.25935 16.2955 21.2243 -153.68 -0.332043 179.934
lowerback -28.3238 -2.09584 -5.58263
upperback -0.90425 -1.58165 0.605443
thorax 14.178 -1.32098 3.04555
lowerneck -1.05533 -5.565 -0.511275
upperneck 16.7029 -7.13806 3.87602
head 5.36094 -2.87541 0.972233
rclavicle -3.42904e-015 -1.39149e-014
rhumerus -40.1973 -16.4689 -79.3594
rradius 35.1781
rwrist -4.5605
rhand -7.17315 -57.5518
rfingers 7.12502
rthumb 18.7043 -86.6726
lclavicle -3.42904e-015 -1.39149e-014
lhumerus -29.962 4.16472 82.4669
lradius 22.9939
lwrist -3.64625
lhand -22.0476 -13.8722
lfingers 7.12502
lthumb 4.36282 16.0629
rfemur -25.5013 6.27665 20.8338
rtibia 7.71639
rfoot -16.8153 0.95235
rtoes -13.2776
lfemur -24.7327 -7.51066 -20.8733
ltibia 8.13922
lfoot -7.85378 1.63121
ltoes -40.5133
37
root -1.2652 16.2992 21.2296 -153.692 -0.331762 179.849
lowerback -28.2615 -2.1556 -5.61685
upperback -0.864718 -1.64035 0.57603
thorax 14.1999 -1.34692 3.01131
lowerneck -1.38576 -5.57608 -0.373386
upperneck 17.0143 -7.13753 3.63259
head 5.50025 -2.86884 0.863116
rclavicle -1.18774e-014 1.98785e-015
rhumerus -40.1232 -16.4402 -79.4172
rradius 35.2725
rwrist -4.62578
rhand -7.25019 -58.5073
rfingers 7.12502
rthumb 18.6302 -87.6352
lclavicle -1.18774e-014 1.98785e-015
lhumerus -29.9071 4.29488 82.416
lradius 22.9335
lwrist -3.74098
lhand -22.4086 -14.1311
lfingers 7.12502
lthumb 4.01422 15.8109
rfemur -25.4677 6.16901 20.7407
rtibia 7.68044
rfoot -16.8013 1.03441
rtoes -12.9091
lfemur -24.7678 -7.50793 -21.0166
ltibia 8.20943
lfoot -7.86797 1.50441
ltoes -40.4568
38
root -1.26485 16.2976 21.2287 -153.771 -0.288886 179.86
lowerback -28.2885 -2.20482 -5.63288
upperback -0.764614 -1.68411 0.59271
thorax 14.3344 -1.3673 3.02108
lowerneck -1.52114 -5.62248 -0.380461
upperneck 17.0777 -7.20194 3.56519
head 5.54236 -2.90507 0.835215
rclavicle 4.42296e-015 2.78299e-015
rhumerus -40.0142 -16.4472 -79.4401
rradius 35.3424
rwrist -4.4195
rhand -6.83501 -58.071
rfingers 7.12502
rthumb 19.0295 -87.1601
lclavicle 4.42296e-015 2.78299e-015
lhumerus -29.8132 4.49691 82.3787
lradius 22.847
lwrist -3.80276
lhand -22.5924 -14.2992
lfingers 7.12502
lthumb 3.83671 15.6461
rfemur -25.3696 6.3494 20.7041
rtibia 7.6462
rfoot -16.7872 0.916562
rtoes -12.5871
lfemur -24.6761 -7.50514 -21.0128
ltibia 8.18704
lfoot -7.87156 1.50182
ltoes -40.2044
39
root -1.26428 16.2956 21.2349 -153.735 -0.246177 179.857
lowerback -28.0923 -2.21824 -5.70277
upperback -0.888812 -1.70985 0.614416
thorax 14.1028 -1.38187 3.07757
lowerneck -1.51825 -5.76804 -0.493992
upperneck 17.2234 -7.39065 3.59476
head 5.59715 -2.99402 0.851387
rclavicle 7.65321e-015 1.15295e-014
rhumerus -40.2426 -16.4 -79.4105
rradius 35.4177
rwrist -4.46426
rhand -7.12165 -57.8333
rfingers 7.12502
rthumb 18.7538 -86.9493
lclavicle 7.65321e-015 1.15295e-014
lhumerus -29.9634 4.61438 82.3564
lradius 22.7391
lwrist -3.86705
lhand -22.5911 -14.249
lfingers 7.12502
lthumb 3.83802 15.6962
rfemur -25.4162 6.59236 20.6201
rtibia 7.59311
rfoot -16.7422 0.694955
rtoes -12.507
lfemur -24.7776 -7.48983 -21.0041
ltibia 8.26762
lfoot -7.78225 1.51083
ltoes -39.7933
40
root -1.28012 16.3003 21.2443 -153.843 -0.354153 179.671
lowerback -27.9665 -2.26925 -5.69417
upperback -0.791144 -1.75599 0.537385
thorax 14.1584 -1.39548 2.97543
lowerneck -1.5755 -5.86379 -0.596436
upperneck 17.1537 -7.54284 3.70521
head 5.59696 -3.07366 0.892006
rclavicle 4.62174e-015 4.37326e-015
rhumerus -40.1176 -16.6219 -79.3723
rradius 35.3411
rwrist -4.33662
rhand -7.42507 -57.3962
rfingers 7.12502
rthumb 18.462 -86.5401
lclavicle 4.62174e-015 4.37326e-015
lhumerus -29.8631 4.53361 82.4056
lradius 22.708
lwrist -3.82483
lhand -22.5595 -14.0012
lfingers 7.12502
lthumb 3.86844 15.9434
rfemur -25.2048 6.36116 20.4463
rtibia 7.46304
rfoot -16.7279 0.689367
rtoes -12.7423
lfemur -24.695 -7.61629 -21.3388
ltibia 8.3804
lfoot -7.75989 1.37922
ltoes -39.7976
41
root -1.26661 16.2993 21.2449 -153.994 -0.23743 179.702
lowerback -27.8578 -2.31555 -5.92563
upperback -0.713257 -1.74211 0.603729
thorax 14.2039 -1.40337 3.18256
lowerneck -1.58737 -5.85645 -0.723371
upperneck 17.1373 -7.54546 3.83237
head 5.6037 -3.07575 0.951442
rclavicle 9.49197e-015 3.22031e-014
rhumerus -40.0441 -16.7294 -79.3075
rradius 35.2345
rwrist -4.28403
rhand -7.51845 -57.2137
rfingers 7.12502
rthumb 18.3721 -86.3661
lclavicle 9.49197e-015 3.22031e-014
lhumerus -29.94 4.28749 82.496
lradius 22.811
lwrist -3.64703
lhand -22.482 -13.9231
lfingers 7.12502
lthumb 3.94337 16.0202
rfemur -25.0671 6.88395 20.373
rtibia 7.43268
rfoot -16.7115 0.281584
rtoes -12.9954
lfemur -24.6014 -7.46185 -21.2495
ltibia 8.46641
lfoot -7.84609 1.46343
ltoes -40.7167
42
root -1.27566 16.304 21.2583 -153.935 -0.102667 179.569
lowerback -27.7577 -2.31471 -6.01093
upperback -0.738611 -1.71581 0.551036
thorax 14.1237 -1.39414 3.18428
lowerneck -1.7041 -5.85282 -0.735551
upperneck 17.2778 -7.5374 3.8088
head 5.66693 -3.06716 0.942115
rclavicle -8.49804e-015 0
rhumerus -40.0357 -16.704 -79.3
rradius 35.2207
rwrist -4.39018
rhand -8.22897 -55.723
rfingers 7.12502
rthumb 17.6885 -84.9384
lclavicle -8.49804e-015 0
lhumerus -29.9913 4.16624 82.5206
lradius 22.871
lwrist -3.55961
lhand -22.2058 -13.9331
lfingers 7.12502
lthumb 4.21008 16.0051
rfemur -25.2812 6.24609 20.3088
rtibia 7.60659
rfoot -16.6913 0.963691
rtoes -13.0429
lfemur -24.771 -7.50975 -21.4648
ltibia 8.5981
lfoot -7.89427 1.57446
ltoes -41.2504
43
root -1.2732 16.3081 21.2754 -154.047 0.0761556 179.394
lowerback -27.5087 -2.38607 -6.35623
upperback -0.680051 -1.70118 0.553377
thorax 14.0789 -1.40493 3.38769
lowerneck -1.89069 -5.84127 -0.745498
upperneck 17.3951 -7.52212 3.75372
head 5.73343 -3.06021 0.920898
rclavicle -6.60959e-015 -1.15295e-014
rhumerus -39.9633 -16.6341 -79.2661
rradius 35.394
rwrist -4.21613
rhand -9.58225 -52.6546
rfingers 7.12502
rthumb 16.3859 -81.9825
lclavicle -6.60959e-015 -1.15295e-014
lhumerus -29.9288 4.18848 82.556
lradius 22.8978
lwrist -3.56558
lhand -22.0555 -13.8466
lfingers 7.12502
lthumb 4.35516 16.0886
rfemur -25.322 6.41471 20.0123
rtibia 7.73169
rfoot -16.6919 0.799739
rtoes -13.257
lfemur -24.8269 -7.56937 -21.6436
ltibia 8.77744
lfoot -7.95603 1.73217
ltoes -40.5518
